<mxfile host="app.diagrams.net" agent="Mozilla/5.0 (Windows NT 10.0; Win64; x64) AppleWebKit/537.36 (KHTML, like Gecko) Chrome/138.0.0.0 Safari/537.36" version="27.1.6">
  <diagram name="PÃ¡gina-1" id="eExo_e2lo-LtlUIM0geD">
    <mxGraphModel dx="868" dy="445" grid="1" gridSize="10" guides="1" tooltips="1" connect="1" arrows="1" fold="1" page="1" pageScale="1" pageWidth="827" pageHeight="1169" math="0" shadow="0">
      <root>
        <mxCell id="0" />
        <mxCell id="1" parent="0" />
        <mxCell id="Vd7-NoiV4wArt_-9INH0-3" value="" style="endArrow=classic;html=1;rounded=0;strokeWidth=3;fillColor=#b0e3e6;strokeColor=#0e8088;" edge="1" parent="1">
          <mxGeometry width="50" height="50" relative="1" as="geometry">
            <mxPoint x="194" y="330" as="sourcePoint" />
            <mxPoint x="194" y="80" as="targetPoint" />
          </mxGeometry>
        </mxCell>
        <mxCell id="Vd7-NoiV4wArt_-9INH0-4" value="" style="endArrow=classic;html=1;rounded=0;strokeWidth=3;fillColor=#b0e3e6;strokeColor=#0e8088;" edge="1" parent="1">
          <mxGeometry width="50" height="50" relative="1" as="geometry">
            <mxPoint x="134" y="280" as="sourcePoint" />
            <mxPoint x="684" y="280" as="targetPoint" />
          </mxGeometry>
        </mxCell>
        <mxCell id="Vd7-NoiV4wArt_-9INH0-5" value="" style="curved=1;endArrow=none;html=1;rounded=0;strokeColor=#82b366;startFill=0;fillColor=#d5e8d4;strokeWidth=2;" edge="1" parent="1">
          <mxGeometry width="50" height="50" relative="1" as="geometry">
            <mxPoint x="194" y="280" as="sourcePoint" />
            <mxPoint x="650" y="220" as="targetPoint" />
            <Array as="points">
              <mxPoint x="210" y="240" />
              <mxPoint x="230" y="210" />
              <mxPoint x="250" y="190" />
              <mxPoint x="270" y="180" />
              <mxPoint x="314" y="190" />
              <mxPoint x="364" y="230" />
              <mxPoint x="410" y="280" />
              <mxPoint x="460" y="220" />
              <mxPoint x="490" y="260" />
              <mxPoint x="570" y="290" />
            </Array>
          </mxGeometry>
        </mxCell>
        <mxCell id="Vd7-NoiV4wArt_-9INH0-7" value="Potencia&lt;div&gt;(MW)&lt;/div&gt;" style="text;html=1;align=center;verticalAlign=middle;whiteSpace=wrap;rounded=0;" vertex="1" parent="1">
          <mxGeometry x="124" y="80" width="60" height="30" as="geometry" />
        </mxCell>
        <mxCell id="Vd7-NoiV4wArt_-9INH0-8" value="Tiempo&lt;br&gt;(meses)" style="text;html=1;align=center;verticalAlign=middle;whiteSpace=wrap;rounded=0;" vertex="1" parent="1">
          <mxGeometry x="644" y="290" width="60" height="30" as="geometry" />
        </mxCell>
        <mxCell id="Vd7-NoiV4wArt_-9INH0-9" value="" style="rounded=1;whiteSpace=wrap;html=1;fillStyle=solid;fillColor=light-dark(#f20202, #ededed);strokeColor=none;" vertex="1" parent="1">
          <mxGeometry x="194" y="360" width="110" height="20" as="geometry" />
        </mxCell>
        <mxCell id="Vd7-NoiV4wArt_-9INH0-10" value="" style="rounded=1;whiteSpace=wrap;html=1;fillStyle=solid;fillColor=light-dark(#0040ff, #ededed);strokeColor=none;" vertex="1" parent="1">
          <mxGeometry x="304" y="360" width="20" height="20" as="geometry" />
        </mxCell>
        <mxCell id="Vd7-NoiV4wArt_-9INH0-12" value="" style="endArrow=none;dashed=1;html=1;strokeWidth=1;rounded=0;exitX=0;exitY=0.5;exitDx=0;exitDy=0;curved=1;fillColor=#f5f5f5;strokeColor=light-dark(#a1a1a1, #959595);gradientColor=#b3b3b3;" edge="1" parent="1" source="Vd7-NoiV4wArt_-9INH0-9">
          <mxGeometry width="50" height="50" relative="1" as="geometry">
            <mxPoint x="444" y="300" as="sourcePoint" />
            <mxPoint x="194" y="330" as="targetPoint" />
          </mxGeometry>
        </mxCell>
        <mxCell id="Vd7-NoiV4wArt_-9INH0-13" value="" style="endArrow=none;dashed=1;html=1;strokeWidth=1;rounded=0;exitX=0;exitY=0.5;exitDx=0;exitDy=0;curved=1;fillColor=#f5f5f5;strokeColor=light-dark(#a1a1a1, #959595);gradientColor=#b3b3b3;" edge="1" parent="1">
          <mxGeometry width="50" height="50" relative="1" as="geometry">
            <mxPoint x="324" y="370" as="sourcePoint" />
            <mxPoint x="324" y="240" as="targetPoint" />
          </mxGeometry>
        </mxCell>
        <mxCell id="Vd7-NoiV4wArt_-9INH0-14" value="&lt;sub&gt;&lt;span style=&quot;font-size: 12px;&quot;&gt;x&lt;/span&gt;i&lt;/sub&gt;" style="rounded=1;whiteSpace=wrap;html=1;fillStyle=solid;fillColor=light-dark(#f20202, #ededed);strokeColor=none;" vertex="1" parent="1">
          <mxGeometry x="234" y="40" width="110" height="20" as="geometry" />
        </mxCell>
        <mxCell id="Vd7-NoiV4wArt_-9INH0-15" value="y&lt;sub&gt;i&lt;/sub&gt;" style="rounded=1;whiteSpace=wrap;html=1;fillStyle=solid;fillColor=light-dark(#0040ff, #ededed);strokeColor=none;" vertex="1" parent="1">
          <mxGeometry x="234" y="70" width="20" height="20" as="geometry" />
        </mxCell>
        <mxCell id="Vd7-NoiV4wArt_-9INH0-16" value="INPUT_LENGHT = 12 meses" style="text;html=1;align=center;verticalAlign=middle;whiteSpace=wrap;rounded=0;" vertex="1" parent="1">
          <mxGeometry x="348" y="35" width="180" height="30" as="geometry" />
        </mxCell>
        <mxCell id="Vd7-NoiV4wArt_-9INH0-17" value="OUTPUT_LENGHT = 1 mes" style="text;html=1;align=center;verticalAlign=middle;whiteSpace=wrap;rounded=0;" vertex="1" parent="1">
          <mxGeometry x="254" y="65" width="180" height="30" as="geometry" />
        </mxCell>
        <mxCell id="Vd7-NoiV4wArt_-9INH0-18" value="" style="rounded=1;whiteSpace=wrap;html=1;fillStyle=solid;fillColor=light-dark(#f20202, #ededed);strokeColor=none;" vertex="1" parent="1">
          <mxGeometry x="214" y="390" width="110" height="20" as="geometry" />
        </mxCell>
        <mxCell id="Vd7-NoiV4wArt_-9INH0-19" value="" style="rounded=1;whiteSpace=wrap;html=1;fillStyle=solid;fillColor=light-dark(#0040ff, #ededed);strokeColor=none;" vertex="1" parent="1">
          <mxGeometry x="324" y="390" width="20" height="20" as="geometry" />
        </mxCell>
        <mxCell id="Vd7-NoiV4wArt_-9INH0-20" value="" style="rounded=1;whiteSpace=wrap;html=1;fillStyle=solid;fillColor=light-dark(#f20202, #ededed);strokeColor=none;" vertex="1" parent="1">
          <mxGeometry x="234" y="420" width="110" height="20" as="geometry" />
        </mxCell>
        <mxCell id="Vd7-NoiV4wArt_-9INH0-21" value="" style="rounded=1;whiteSpace=wrap;html=1;fillStyle=solid;fillColor=light-dark(#0040ff, #ededed);strokeColor=none;" vertex="1" parent="1">
          <mxGeometry x="344" y="420" width="20" height="20" as="geometry" />
        </mxCell>
        <mxCell id="Vd7-NoiV4wArt_-9INH0-22" value="" style="endArrow=none;dashed=1;html=1;strokeWidth=1;rounded=0;exitX=0;exitY=0.5;exitDx=0;exitDy=0;curved=1;fillColor=#f5f5f5;strokeColor=light-dark(#a1a1a1, #959595);gradientColor=#b3b3b3;" edge="1" parent="1">
          <mxGeometry width="50" height="50" relative="1" as="geometry">
            <mxPoint x="344" y="400" as="sourcePoint" />
            <mxPoint x="344" y="240" as="targetPoint" />
          </mxGeometry>
        </mxCell>
        <mxCell id="Vd7-NoiV4wArt_-9INH0-23" value="" style="endArrow=none;dashed=1;html=1;strokeWidth=1;rounded=0;exitX=0;exitY=0.5;exitDx=0;exitDy=0;curved=1;fillColor=#f5f5f5;strokeColor=light-dark(#a1a1a1, #959595);gradientColor=#b3b3b3;" edge="1" parent="1">
          <mxGeometry width="50" height="50" relative="1" as="geometry">
            <mxPoint x="364" y="430" as="sourcePoint" />
            <mxPoint x="364" y="240" as="targetPoint" />
          </mxGeometry>
        </mxCell>
        <mxCell id="Vd7-NoiV4wArt_-9INH0-25" value="" style="endArrow=none;dashed=1;html=1;strokeWidth=1;rounded=0;exitX=0;exitY=0.5;exitDx=0;exitDy=0;curved=1;fillColor=#f5f5f5;strokeColor=light-dark(#a1a1a1, #959595);gradientColor=#b3b3b3;" edge="1" parent="1">
          <mxGeometry width="50" height="50" relative="1" as="geometry">
            <mxPoint x="214" y="400" as="sourcePoint" />
            <mxPoint x="214" y="240" as="targetPoint" />
          </mxGeometry>
        </mxCell>
        <mxCell id="Vd7-NoiV4wArt_-9INH0-26" value="" style="endArrow=none;dashed=1;html=1;strokeWidth=1;rounded=0;exitX=0;exitY=0.5;exitDx=0;exitDy=0;curved=1;fillColor=#f5f5f5;strokeColor=light-dark(#a1a1a1, #959595);gradientColor=#b3b3b3;" edge="1" parent="1">
          <mxGeometry width="50" height="50" relative="1" as="geometry">
            <mxPoint x="234" y="430" as="sourcePoint" />
            <mxPoint x="234" y="240" as="targetPoint" />
          </mxGeometry>
        </mxCell>
      </root>
    </mxGraphModel>
  </diagram>
</mxfile>
